<?xml version="1.0" encoding="utf-8"?>
<!-- Generator: Adobe Illustrator 23.0.2, SVG Export Plug-In . SVG Version: 6.00 Build 0)  -->
<svg version="1.1" id="Layer_1" xmlns="http://www.w3.org/2000/svg" xmlns:xlink="http://www.w3.org/1999/xlink" x="0px" y="0px"
	 viewBox="0 0 283.46 283.46" style="enable-background:new 0 0 283.46 283.46;" xml:space="preserve">
<style type="text/css">
	.st0{fill:#AE5C10;}
	.st1{fill:#D5A173;}
</style>
<g>
	<g>
		<path class="st0" d="M104.17,186.25c-21.85,0-12.43-24.26-22.77-23.59c0,0,27.82-14.81,59.16-14.81
			c48.08,0,76.02,24.18,76.02,24.18s-17.83-8.6-38.47-8.6C150.49,163.43,126.62,186.25,104.17,186.25z"/>
		<path class="st1" d="M183.69,173.15c-33.16,0-48.56,26.07-79.42,26.07c-17.43,0-22.78-12.66-22.78-22.7
			c2.99,12.44,12.11,17.35,22.54,17.35c25.42,0,48.95-22.86,73.76-22.86c12.96,0,24.29,3.89,24.29,3.89l-0.38,0.38
			C195.07,173.79,188.01,173.15,183.69,173.15z"/>
		<g>
			<path d="M90.91,132.27l1.72-1.71l-0.37-0.37l84.65-84.02l0.25,0.25l15.76-15.46l0.09,0c0.4,8.08-7.5,12.13-7.5,18.35
				c0,4.28,6.59,7.31,11.01,2.88c3.99-3.99,3.23-13.13-1.44-22.37l0.13-0.14l-3.79-3.79l-1.28,1.28l0.01,1.02l-15.46,15.75
				l0.25,0.25l-84.03,84.65l-0.37-0.38l-2.06,2.06l-7.15-4.75l-3.53-2.1c-0.46-0.23-0.6-0.27-0.99-0.2
				c-0.21,0.04-0.98,0.66-1.5,1.44c-0.44,0.66-0.58,1.19-0.61,1.6c-0.01,0.22,0.07,0.48,0.33,0.67l3.27,2.64l15.21,11.26
				c2.25,0.91,4.89,1.87,5.31,1.95c0.49,0.09,0.78-0.29,1.24-0.94c0.51-0.73,0.77-1.44,0.72-1.64c-0.08-0.4-0.31-0.65-0.63-0.95
				l-3.58-2.85L90.91,132.27z M187.56,48.65c0-3.86,7.97-9.97,6.49-17.81l0.44-0.44c3.36,7.75,4.21,16.86,0.73,20.35
				C192.23,53.74,187.57,52.38,187.56,48.65z"/>
			<path d="M186.02,136.67l-3.58,2.85c-0.32,0.3-0.55,0.55-0.63,0.95c-0.05,0.2,0.2,0.9,0.72,1.64c0.46,0.65,0.76,1.03,1.24,0.94
				c0.42-0.08,3.07-1.04,5.32-1.95l15.21-11.26l3.27-2.64c0.25-0.19,0.35-0.45,0.33-0.67c-0.03-0.42-0.16-0.94-0.61-1.6
				c-0.52-0.78-1.29-1.4-1.5-1.44c-0.39-0.07-0.54-0.03-0.99,0.2l-3.53,2.1l-7.15,4.75l-2.05-2.06l-0.37,0.38L107.66,44.2l0.25-0.25
				L92.46,28.2l0-1.02l-1.27-1.28l-3.79,3.79l0.13,0.14c-4.67,9.24-5.42,18.39-1.44,22.37c4.43,4.43,11.01,1.4,11.01-2.88
				c0-6.22-7.9-10.27-7.5-18.35l0.09,0l15.76,15.46l0.25-0.25l84.65,84.02l-0.37,0.37l1.72,1.71L186.02,136.67z M87.38,50.75
				c-3.49-3.49-2.63-12.59,0.73-20.35l0.43,0.44c-1.47,7.84,6.49,13.95,6.49,17.81C95.04,52.38,90.37,53.74,87.38,50.75z"/>
		</g>
	</g>
	<g>
		<path d="M82.28,219.5h3.07c1.98,0,3.45,0.24,4.41,0.73c0.96,0.49,1.75,1.29,2.38,2.39c0.62,1.1,0.93,2.39,0.93,3.86
			c0,1.05-0.17,2.01-0.52,2.9c-0.35,0.87-0.83,1.6-1.44,2.18c-0.61,0.58-1.28,0.98-1.99,1.2c-0.71,0.22-1.95,0.33-3.72,0.33h-3.11
			V219.5z M84.85,222v8.58h1.21c1.18,0,2.04-0.14,2.57-0.41c0.53-0.28,0.97-0.73,1.31-1.37c0.34-0.64,0.51-1.44,0.51-2.37
			c0-1.44-0.41-2.56-1.21-3.36c-0.73-0.72-1.9-1.07-3.51-1.07H84.85z"/>
		<path d="M95.43,219.5h2.6v8.79c0,0.76,0.07,1.29,0.2,1.61c0.13,0.32,0.35,0.57,0.66,0.76c0.3,0.18,0.67,0.28,1.11,0.28
			c0.46,0,0.85-0.1,1.18-0.31c0.33-0.21,0.56-0.48,0.68-0.8c0.13-0.32,0.19-0.94,0.19-1.86v-8.47h2.6v8.1
			c0,1.37-0.08,2.32-0.23,2.85c-0.16,0.53-0.45,1.04-0.88,1.53c-0.44,0.49-0.94,0.86-1.51,1.1c-0.57,0.24-1.23,0.35-1.98,0.35
			c-0.99,0-1.84-0.23-2.58-0.68c-0.73-0.45-1.25-1.02-1.57-1.7c-0.32-0.68-0.47-1.83-0.47-3.46V219.5z"/>
		<path d="M107.64,233.1v-13.6h2.13c1.24,0,2.14,0.08,2.72,0.24c0.81,0.22,1.46,0.62,1.94,1.2c0.48,0.58,0.72,1.27,0.72,2.07
			c0,0.51-0.11,0.99-0.33,1.41c-0.22,0.42-0.57,0.82-1.06,1.19c0.82,0.39,1.43,0.88,1.81,1.46c0.38,0.59,0.57,1.28,0.57,2.07
			c0,0.76-0.2,1.46-0.59,2.09c-0.4,0.63-0.91,1.1-1.53,1.41c-0.62,0.31-1.48,0.46-2.58,0.46H107.64z M110.23,221.97v2.87h0.56
			c0.63,0,1.1-0.14,1.4-0.4c0.31-0.27,0.46-0.63,0.46-1.08c0-0.43-0.15-0.77-0.44-1.01c-0.29-0.25-0.73-0.37-1.32-0.37H110.23z
			 M110.23,227.14v3.49h0.65c1.07,0,1.8-0.14,2.17-0.41c0.37-0.27,0.56-0.67,0.56-1.18c0-0.59-0.22-1.05-0.66-1.39
			c-0.44-0.34-1.17-0.51-2.18-0.51H110.23z"/>
		<path d="M122.78,219.5h2.62l5.23,13.6h-2.69l-1.06-2.8h-5.56l-1.1,2.8h-2.7L122.78,219.5z M124.1,223.11l-1.83,4.67h3.65
			L124.1,223.11z"/>
		<path d="M132.45,219.5h2.57v13.6h-2.57V219.5z"/>
		<path d="M143.22,219.5h2.74c1.48,0,2.55,0.14,3.21,0.41c0.66,0.27,1.17,0.71,1.55,1.33c0.38,0.61,0.57,1.35,0.57,2.2
			c0,0.95-0.25,1.74-0.74,2.36c-0.5,0.63-1.17,1.07-2.02,1.32c-0.5,0.14-1.41,0.21-2.72,0.21v5.76h-2.59V219.5z M145.8,224.82h0.82
			c0.65,0,1.1-0.05,1.35-0.14c0.25-0.1,0.45-0.25,0.6-0.46c0.14-0.21,0.22-0.47,0.22-0.78c0-0.52-0.2-0.91-0.61-1.15
			c-0.29-0.18-0.84-0.27-1.64-0.27h-0.73V224.82z"/>
		<path d="M160.25,219.16c1.93,0,3.58,0.7,4.97,2.09c1.38,1.39,2.08,3.09,2.08,5.09c0,1.99-0.68,3.66-2.05,5.04
			c-1.37,1.38-3.02,2.06-4.97,2.06c-2.04,0-3.73-0.7-5.09-2.11c-1.35-1.41-2.02-3.09-2.02-5.03c0-1.3,0.31-2.5,0.94-3.58
			c0.63-1.09,1.5-1.96,2.6-2.6C157.79,219.48,158.98,219.16,160.25,219.16z M160.22,221.69c-1.26,0-2.32,0.44-3.17,1.31
			c-0.86,0.88-1.29,1.99-1.29,3.34c0,1.51,0.54,2.69,1.62,3.57c0.84,0.68,1.8,1.03,2.89,1.03c1.23,0,2.27-0.44,3.14-1.33
			c0.86-0.89,1.29-1.98,1.29-3.28c0-1.29-0.44-2.39-1.3-3.29C162.53,222.14,161.47,221.69,160.22,221.69z"/>
		<path d="M169.73,219.5h2.59v11.13h3.77v2.47h-6.36V219.5z"/>
		<path d="M184.48,219.16c1.93,0,3.58,0.7,4.96,2.09c1.39,1.39,2.08,3.09,2.08,5.09c0,1.99-0.68,3.66-2.05,5.04
			c-1.36,1.38-3.02,2.06-4.97,2.06c-2.04,0-3.74-0.7-5.09-2.11c-1.35-1.41-2.02-3.09-2.02-5.03c0-1.3,0.31-2.5,0.94-3.58
			c0.63-1.09,1.49-1.96,2.6-2.6C182.02,219.48,183.21,219.16,184.48,219.16z M184.45,221.69c-1.26,0-2.32,0.44-3.17,1.31
			c-0.86,0.88-1.29,1.99-1.29,3.34c0,1.51,0.54,2.69,1.62,3.57c0.84,0.68,1.8,1.03,2.89,1.03c1.23,0,2.27-0.44,3.14-1.33
			c0.86-0.89,1.3-1.98,1.3-3.28c0-1.29-0.43-2.39-1.3-3.29C186.76,222.14,185.7,221.69,184.45,221.69z"/>
		<path d="M207.79,227.76l1.54,1.77l-0.7,0.63l-0.69,0.63l2.17,2.32h-3.13l-0.9-0.92c-1.43,0.84-2.76,1.26-3.99,1.26
			c-1.04,0-1.89-0.3-2.53-0.92c-0.65-0.61-0.97-1.39-0.97-2.35c0-0.72,0.18-1.4,0.55-2.04c0.36-0.64,0.99-1.3,1.88-1.98
			c-0.88-1.18-1.32-2.22-1.32-3.12c0-0.67,0.29-1.34,0.87-1.99c0.58-0.66,1.4-0.98,2.45-0.98c1.07,0,1.88,0.32,2.45,0.97
			c0.57,0.65,0.86,1.3,0.86,1.96c0,0.52-0.13,1.01-0.39,1.49c-0.26,0.48-0.86,1.18-1.81,2.11c1.1,1.3,1.82,2.11,2.14,2.43
			C206.47,228.87,206.98,228.45,207.79,227.76z M204.41,230.37c-0.47-0.47-1.15-1.24-2.01-2.32c-0.92,0.76-1.37,1.42-1.37,1.99
			c0,0.26,0.13,0.51,0.38,0.73c0.25,0.22,0.56,0.33,0.95,0.33C202.89,231.1,203.58,230.86,204.41,230.37z M202.87,224.76
			c0.68-0.58,1.02-1.1,1.02-1.55c0-0.23-0.08-0.43-0.23-0.57c-0.15-0.15-0.36-0.22-0.61-0.22c-0.23,0-0.43,0.08-0.6,0.25
			c-0.16,0.17-0.24,0.36-0.24,0.58C202.21,223.69,202.43,224.2,202.87,224.76z"/>
		<path d="M66.57,242.22h7.42v2.53h-4.85v2.46h4.85v2.49h-4.85v3.58h4.85v2.54h-7.42V242.22z"/>
		<path d="M88.07,253.83l2.37,3.06h-3.08l-1.2-1.55c-0.99,0.54-2.1,0.81-3.32,0.81c-2.04,0-3.74-0.71-5.09-2.12
			c-1.35-1.41-2.02-3.09-2.02-5.03c0-1.3,0.31-2.49,0.94-3.58c0.63-1.09,1.5-1.96,2.6-2.59c1.1-0.64,2.28-0.96,3.55-0.96
			c1.93,0,3.59,0.7,4.97,2.09c1.39,1.39,2.08,3.09,2.08,5.09C89.86,250.9,89.27,252.5,88.07,253.83z M86.45,251.74
			c0.55-0.81,0.82-1.71,0.82-2.7c0-1.29-0.43-2.38-1.3-3.29c-0.87-0.9-1.92-1.35-3.16-1.35c-1.27,0-2.34,0.44-3.19,1.32
			c-0.86,0.88-1.29,1.99-1.29,3.34c0,1.51,0.54,2.7,1.62,3.57c0.85,0.68,1.8,1.02,2.88,1.02c0.61,0,1.2-0.12,1.74-0.36l-2.43-3.13
			h3.08L86.45,251.74z"/>
		<path d="M92.21,242.22h2.6v8.8c0,0.76,0.06,1.29,0.2,1.61c0.13,0.32,0.35,0.57,0.66,0.75c0.3,0.18,0.67,0.28,1.1,0.28
			c0.46,0,0.85-0.1,1.19-0.31c0.33-0.21,0.55-0.48,0.69-0.8c0.12-0.33,0.18-0.94,0.18-1.85v-8.47h2.6v8.11
			c0,1.37-0.08,2.32-0.24,2.85c-0.15,0.53-0.45,1.04-0.88,1.54c-0.43,0.49-0.93,0.86-1.5,1.09c-0.56,0.24-1.23,0.36-1.98,0.36
			c-0.98,0-1.84-0.23-2.57-0.68c-0.73-0.45-1.26-1.02-1.57-1.7c-0.31-0.68-0.47-1.83-0.47-3.45V242.22z"/>
		<path d="M104.43,242.22h7.43v2.53H107v2.46h4.86v2.49H107v3.58h4.86v2.54h-7.43V242.22z"/>
		<path d="M121.39,244.07l-1.91,1.7c-0.68-0.94-1.36-1.41-2.06-1.41c-0.34,0-0.62,0.09-0.83,0.27c-0.22,0.18-0.32,0.39-0.32,0.61
			c0,0.23,0.08,0.44,0.23,0.65c0.21,0.27,0.84,0.85,1.9,1.75c0.99,0.83,1.58,1.34,1.79,1.56c0.53,0.53,0.9,1.04,1.12,1.52
			c0.21,0.48,0.33,1.01,0.33,1.58c0,1.11-0.38,2.04-1.16,2.76c-0.77,0.73-1.77,1.09-3.01,1.09c-0.97,0-1.81-0.24-2.53-0.71
			c-0.72-0.48-1.33-1.22-1.85-2.24l2.17-1.31c0.65,1.2,1.41,1.8,2.26,1.8c0.45,0,0.82-0.13,1.12-0.39c0.3-0.26,0.46-0.56,0.46-0.9
			c0-0.31-0.12-0.61-0.35-0.92c-0.23-0.31-0.73-0.78-1.51-1.41c-1.48-1.21-2.44-2.14-2.86-2.8c-0.44-0.66-0.66-1.31-0.66-1.96
			c0-0.94,0.36-1.75,1.08-2.43c0.72-0.67,1.6-1.01,2.66-1.01c0.68,0,1.33,0.16,1.93,0.47C120.02,242.67,120.68,243.24,121.39,244.07
			z"/>
		<path d="M122.77,242.22h7.52v2.55h-2.48v11.05h-2.63v-11.05h-2.42V242.22z"/>
		<path d="M132.24,242.22h2.75c1.5,0,2.57,0.13,3.21,0.4c0.64,0.27,1.15,0.71,1.54,1.34c0.39,0.63,0.58,1.36,0.58,2.21
			c0,0.9-0.21,1.64-0.64,2.25c-0.43,0.6-1.07,1.05-1.94,1.36l3.22,6.04h-2.83l-3.07-5.76h-0.24v5.76h-2.59V242.22z M134.83,247.53
			h0.81c0.83,0,1.4-0.11,1.71-0.32c0.31-0.22,0.47-0.58,0.47-1.08c0-0.3-0.08-0.55-0.23-0.78c-0.15-0.22-0.36-0.38-0.63-0.47
			c-0.26-0.09-0.73-0.14-1.42-0.14h-0.71V247.53z"/>
		<path d="M142.86,242.22h2.57v13.6h-2.57V242.22z"/>
		<path d="M152.49,242.22h2.62l5.22,13.6h-2.69l-1.06-2.79h-5.56l-1.1,2.79h-2.69L152.49,242.22z M153.82,245.83l-1.83,4.67h3.65
			L153.82,245.83z"/>
		<path d="M162.36,242.22h2.47l5.83,8.95v-8.95h2.59v13.6h-2.49l-5.82-8.92v8.92h-2.58V242.22z"/>
		<path d="M194.14,244.61l-1.81,1.72c-1.23-1.3-2.61-1.96-4.15-1.96c-1.3,0-2.4,0.44-3.29,1.34c-0.89,0.89-1.34,1.98-1.34,3.28
			c0,0.91,0.2,1.71,0.59,2.41c0.4,0.7,0.95,1.26,1.67,1.66c0.72,0.4,1.52,0.6,2.4,0.6c0.75,0,1.44-0.14,2.06-0.42
			c0.62-0.28,1.3-0.79,2.05-1.53l1.76,1.83c-1.01,0.98-1.96,1.66-2.85,2.04c-0.89,0.38-1.91,0.57-3.06,0.57
			c-2.11,0-3.84-0.67-5.19-2.01c-1.35-1.34-2.02-3.05-2.02-5.15c0-1.35,0.31-2.56,0.92-3.61c0.62-1.06,1.5-1.91,2.64-2.54
			c1.14-0.64,2.37-0.96,3.69-0.96c1.11,0,2.2,0.24,3.23,0.71C192.5,243.06,193.39,243.73,194.14,244.61z"/>
		<path d="M196.42,242.22H199v11.13h3.78v2.47h-6.36V242.22z"/>
		<path d="M204.65,242.22h2.6v8.8c0,0.76,0.07,1.29,0.2,1.61c0.13,0.32,0.35,0.57,0.66,0.75c0.31,0.18,0.68,0.28,1.11,0.28
			c0.45,0,0.85-0.1,1.18-0.31c0.33-0.21,0.56-0.48,0.69-0.8c0.13-0.33,0.19-0.94,0.19-1.85v-8.47h2.6v8.11
			c0,1.37-0.08,2.32-0.23,2.85c-0.15,0.53-0.45,1.04-0.88,1.54c-0.43,0.49-0.93,0.86-1.51,1.09c-0.57,0.24-1.23,0.36-1.98,0.36
			c-0.99,0-1.85-0.23-2.58-0.68c-0.73-0.45-1.25-1.02-1.57-1.7c-0.32-0.68-0.48-1.83-0.48-3.45V242.22z"/>
		<path d="M216.86,255.82v-13.6H219c1.24,0,2.14,0.08,2.72,0.24c0.81,0.21,1.46,0.62,1.94,1.2c0.48,0.58,0.72,1.28,0.72,2.07
			c0,0.52-0.11,0.98-0.32,1.41c-0.22,0.42-0.58,0.82-1.06,1.19c0.82,0.39,1.43,0.87,1.81,1.46c0.38,0.58,0.57,1.27,0.57,2.06
			c0,0.76-0.2,1.46-0.59,2.09c-0.39,0.63-0.9,1.1-1.52,1.41c-0.62,0.31-1.48,0.46-2.58,0.46H216.86z M219.45,244.69v2.87h0.57
			c0.63,0,1.1-0.13,1.4-0.4c0.3-0.27,0.46-0.63,0.46-1.08c0-0.43-0.14-0.77-0.43-1.01c-0.29-0.25-0.73-0.37-1.32-0.37H219.45z
			 M219.45,249.86v3.48h0.65c1.07,0,1.8-0.14,2.17-0.41c0.37-0.27,0.56-0.67,0.56-1.18c0-0.58-0.22-1.04-0.66-1.39
			c-0.43-0.34-1.16-0.5-2.18-0.5H219.45z"/>
	</g>
</g>
</svg>
